<svg xmlns="http://www.w3.org/2000/svg" width="186.667" height="186.667" version="1.0" viewBox="0 0 140 140">
    <path fill="white" d="M61 2.5c-13.2 3.7-23.4 15.3-24.7 28l-.6 5.2-5.2.6C17.3 37.6 6 48 2.4 61.9c-2.8 11.2-.1 22 7.8 30.7 6 6.5 13 10.4 20.3 11.1l5.2.6.6 5.2c2 19 22.7 32.9 41.8 28.1 13.8-3.6 24.3-15 25.6-28.1l.6-5.2 5.2-.6c13.1-1.3 24.5-11.8 28.1-25.6 2.8-11.2.1-22-7.8-30.7-6-6.5-13-10.4-20.3-11.1l-5.2-.6-.6-5.2c-.7-7.3-4.6-14.3-11.1-20.2C83.9 2.3 72.1-.5 61 2.5zM104 70v34H36V36h68v34z"/>
</svg>